<svg id="Ebene_1" data-name="Ebene 1" xmlns="http://www.w3.org/2000/svg" viewBox="0 0 124.25 124.25"><defs><style>.cls-1{fill:#fff;}.cls-2{fill:#b22225;}.cls-3{fill:#324f5f;}</style></defs><title>EVA_Logo_normal_RGB</title><path class="cls-1" d="M70.87,133A62.13,62.13,0,1,0,8.74,70.87,62.13,62.13,0,0,0,70.87,133" transform="translate(-8.74 -8.74)"/><path class="cls-2" d="M117.5,88.14a4.25,4.25,0,1,0-4.25-4.25,4.25,4.25,0,0,0,4.25,4.25" transform="translate(-8.74 -8.74)"/><path class="cls-3" d="M104.23,72.22C103.65,79.08,98.73,83.8,92,83.8c-7.24,0-12.35-5.37-12.35-12.87S84.76,58,92,58c6.73,0,11.64,4.79,12.22,11.64v2.59ZM52.84,68.73H29.56c0.71-6.6,5.37-10.86,11.9-10.86s11.06,4.27,11.38,10.86m56.44,19.14v-34h-5V61.1c-2.59-4.79-7.24-7.57-13.39-7.5a16,16,0,0,0-10,3.26l1.18-3H77L66.15,82.77,55.29,53.86H49.92l1,2.42a16.38,16.38,0,0,0-9.42-2.61c-9.89.06-16.88,7-16.88,17.2s6.92,17.2,16.94,17.2a18.09,18.09,0,0,0,13.71-5.63l-2.78-2.91a14.28,14.28,0,0,1-10.54,4.33c-6.66,0-11.51-4.4-12.35-11.12H57.37s0-.09,0-0.14l6.07,15.27h5.24l6-15.27C75.43,81.79,81.92,88.13,91,88.13c6,0,10.67-2.78,13.19-7.5v7.24h5Z" transform="translate(-8.74 -8.74)"/></svg>