<?xml version="1.0" encoding="UTF-8" standalone="no"?>
<svg
   xmlns:dc="http://purl.org/dc/elements/1.1/"
   xmlns:cc="http://creativecommons.org/ns#"
   xmlns:rdf="http://www.w3.org/1999/02/22-rdf-syntax-ns#"
   xmlns:svg="http://www.w3.org/2000/svg"
   xmlns="http://www.w3.org/2000/svg"
   xmlns:sodipodi="http://sodipodi.sourceforge.net/DTD/sodipodi-0.dtd"
   xmlns:inkscape="http://www.inkscape.org/namespaces/inkscape"
   viewBox="0 0 355 85"
   height="85"
   width="355"
   role="img"
   aria-label="bakdata"
   version="1.1"
   id="svg32"
   sodipodi:docname="bakdata_logo.svg"
   inkscape:version="0.92.1 r15371">
  <metadata
     id="metadata36">
    <rdf:RDF>
      <cc:Work
         rdf:about="">
        <dc:format>image/svg+xml</dc:format>
        <dc:type
           rdf:resource="http://purl.org/dc/dcmitype/StillImage" />
      </cc:Work>
    </rdf:RDF>
  </metadata>
  <sodipodi:namedview
     pagecolor="#ffffff"
     bordercolor="#666666"
     borderopacity="1"
     objecttolerance="10"
     gridtolerance="10"
     guidetolerance="10"
     inkscape:pageopacity="0"
     inkscape:pageshadow="2"
     inkscape:window-width="3347"
     inkscape:window-height="1406"
     id="namedview34"
     showgrid="false"
     inkscape:zoom="4.4169014"
     inkscape:cx="169.90872"
     inkscape:cy="7.0613897"
     inkscape:window-x="82"
     inkscape:window-y="-11"
     inkscape:window-maximized="1"
     inkscape:current-layer="svg32" />
  <title
     id="title2">bakdata</title>
  <description>bakdata</description>
  <defs
     id="defs12">
    <clipPath
       clipPathUnits="userSpaceOnUse"
       id="clipPath6" />
    <clipPath
       clipPathUnits="userSpaceOnUse"
       id="clipPath10">
      <path
         d="M0 0 284 0 284 68 0 68 0 0Z"
         id="path8" />
    </clipPath>
  </defs>
  <g
     transform="matrix(1.25,0,0,-1.25,0,85)"
     id="g30"
     style="fill:#706d6e">
    <g
       clip-path="url(#clipPath4317)"
       id="g18">
      <path
         d="M 79.48,67.29 V 45.48 c -4.06,2.03 -7.77,3.09 -12.36,3.71 v 18.1 h 12.36"
         id="path14"
         inkscape:connector-curvature="0"
         style="fill:#f68712" />
      <path
         d="m 58.99,36.38 c 2.74,0 6.09,-0.53 8.12,-1.5 0.44,-3.18 0.44,-6.18 0.44,-9.1 0,-12.19 -7.95,-15.89 -12.01,-15.89 -3.97,0 -6.98,1.85 -9.71,4.86 C 44.68,12.01 42.74,8.39 40.62,5.74 44.6,2.03 48.3,0 53.34,0 c 5.3,0 10.24,1.85 13.69,5.48 h 0.09 l 1.77,-4.41 h 10.6 V 25.8 L 96.27,1.08 h 15.28 L 93,26.78 108.19,45.24 H 94.94 L 79.49,25.81 V 41.53 C 74,44.77 67.73,46.27 60.4,46.27 30.55,46.27 38.68,9.89 20.49,9.89 c -2.74,0 -6.09,0.53 -8.12,1.5 -0.44,3.18 -0.44,6.18 -0.44,9.1 0,12.19 7.95,15.9 12.01,15.9 3.97,0 7.07,-1.85 9.8,-4.86 1.15,2.74 3.09,6.36 5.21,9.01 -3.97,3.71 -7.77,5.74 -12.8,5.74 -5.3,0 -10.24,-1.85 -13.69,-5.47 H 12.37 V 67.3 L 0,67.29 V 4.77 C 5.48,1.5 11.75,0 19.07,0 48.75,0 40.8,36.38 58.99,36.38"
         class="a"
         id="path16"
         inkscape:connector-curvature="0"
         style="fill:#706d6e" />
    </g>
    <g
       clip-path="url(#clipPath4329)"
       id="g28">
      <path
         d="m 134.23,3.97 c -9.45,0 -15.01,7.51 -15.01,17.75 0,9.18 6.45,20.58 18.1,20.58 5.39,0 9.36,-1.15 12.8,-3.71 0.35,-3.36 0.44,-6.89 0.44,-10.51 0,-14.66 -5.56,-24.11 -16.34,-24.11 z m 15.89,63.32 v -24.2 c -3.18,1.77 -7.24,2.74 -12.45,2.74 -13.77,0 -22.87,-10.95 -22.87,-24.73 0,-12.63 7.77,-20.66 18.54,-20.66 9.1,0 13.25,3.27 16.69,9.89 h 0.09 L 151,1.06 h 3.53 v 66.23 h -4.42"
         class="a"
         id="path20"
         inkscape:connector-curvature="0"
         style="fill:#706d6e" />
      <path
         d="m 184.56,3.97 c -9.45,0 -15.01,7.51 -15.01,17.75 0,9.18 6.45,20.58 18.1,20.58 5.39,0 9.36,-1.15 12.8,-3.71 0.35,-3.36 0.44,-6.89 0.44,-10.51 0,-14.66 -5.56,-24.11 -16.33,-24.11 z M 188,45.83 c -13.78,0 -22.87,-10.95 -22.87,-24.73 0,-12.63 7.77,-20.66 18.54,-20.66 9.1,0 13.25,3.27 16.69,9.89 h 0.09 l 0.88,-9.27 h 3.53 v 39.03 c -4.77,3.97 -9.89,5.74 -16.87,5.74"
         class="a"
         id="path22"
         inkscape:connector-curvature="0"
         style="fill:#706d6e" />
      <path
         d="m 263.15,3.97 c -9.45,0 -15.01,7.51 -15.01,17.75 0,9.18 6.45,20.58 18.1,20.58 5.39,0 9.36,-1.15 12.81,-3.71 0.35,-3.36 0.44,-6.89 0.44,-10.51 0,-14.66 -5.56,-24.11 -16.34,-24.11 z m 3.44,41.86 c -13.78,0 -22.87,-10.95 -22.87,-24.73 0,-12.63 7.77,-20.66 18.54,-20.66 9.1,0 13.25,3.27 16.69,9.89 h 0.09 l 0.88,-9.27 h 3.53 v 39.03 c -4.77,3.97 -9.89,5.74 -16.87,5.74"
         class="a"
         id="path24"
         inkscape:connector-curvature="0"
         style="fill:#706d6e" />
      <path
         d="m 222.53,58.46 -0.88,-14.13 h -9.71 V 40.8 h 9.71 V 11.4 c 0,-7.95 3.71,-10.95 10.24,-10.95 3.18,0 6,0.44 8.12,1.15 v 3.36 c -2.3,-0.53 -5.03,-0.97 -7.68,-0.97 -3.8,0 -6.27,2.38 -6.27,7.77 v 29.05 h 13.33 v 3.53 h -13.33 v 14.13 h -3.53"
         class="a"
         id="path26"
         inkscape:connector-curvature="0"
         style="fill:#706d6e" />
    </g>
  </g>
</svg>
