<svg xmlns="http://www.w3.org/2000/svg" viewBox="0 0 355 85" height="85" width="355" role="img" aria-label="bakdata"><title>bakdata</title><description>bakdata</description><style>.a{fill:#706d6e;}</style><defs><clipPath clipPathUnits="userSpaceOnUse"/><clipPath clipPathUnits="userSpaceOnUse"><path d="M0 0 284 0 284 68 0 68 0 0Z"/></clipPath></defs><g transform="matrix(1.25 0 0 -1.25 0 85)"><g clip-path="url(#clipPath4317)"><path d="m79.48 67.29 0-21.81c-4.06 2.03-7.77 3.09-12.36 3.71l0 18.1 12.36 0" fill="#f68712"/><path d="m58.99 36.38c2.74 0 6.09-0.53 8.12-1.5 0.44-3.18 0.44-6.18 0.44-9.1 0-12.19-7.95-15.89-12.01-15.89-3.97 0-6.98 1.85-9.71 4.86C44.68 12.01 42.74 8.39 40.62 5.74 44.6 2.03 48.3 0 53.34 0 58.64 0 63.58 1.85 67.03 5.48l0.09 0 1.77-4.41 10.6 0 0 24.73 16.78-24.72 15.28 0-18.55 25.7 15.19 18.46-13.25 0-15.45-19.43 0 15.72C74 44.77 67.73 46.27 60.4 46.27 30.55 46.27 38.68 9.89 20.49 9.89c-2.74 0-6.09 0.53-8.12 1.5-0.44 3.18-0.44 6.18-0.44 9.1 0 12.19 7.95 15.9 12.01 15.9 3.97 0 7.07-1.85 9.8-4.86 1.15 2.74 3.09 6.36 5.21 9.01-3.97 3.71-7.77 5.74-12.8 5.74-5.3 0-10.24-1.85-13.69-5.47l-0.09 0 0 26.49L0 67.29 0 4.77C5.48 1.5 11.75 0 19.07 0 48.75 0 40.8 36.38 58.99 36.38" class="a"/></g><g clip-path="url(#clipPath4329)"><path d="m134.23 3.97c-9.45 0-15.01 7.51-15.01 17.75 0 9.18 6.45 20.58 18.1 20.58 5.39 0 9.36-1.15 12.8-3.71 0.35-3.36 0.44-6.89 0.44-10.51 0-14.66-5.56-24.11-16.34-24.11zm15.89 63.32 0-24.2c-3.18 1.77-7.24 2.74-12.45 2.74-13.77 0-22.87-10.95-22.87-24.73 0-12.63 7.77-20.66 18.54-20.66 9.1 0 13.25 3.27 16.69 9.89l0.09 0 0.88-9.27 3.53 0 0 66.23-4.42 0" class="a"/><path d="m184.56 3.97c-9.45 0-15.01 7.51-15.01 17.75 0 9.18 6.45 20.58 18.1 20.58 5.39 0 9.36-1.15 12.8-3.71 0.35-3.36 0.44-6.89 0.44-10.51 0-14.66-5.56-24.11-16.33-24.11zm3.44 41.86c-13.78 0-22.87-10.95-22.87-24.73 0-12.63 7.77-20.66 18.54-20.66 9.1 0 13.25 3.27 16.69 9.89l0.09 0 0.88-9.27 3.53 0 0 39.03c-4.77 3.97-9.89 5.74-16.87 5.74" class="a"/><path d="m263.15 3.97c-9.45 0-15.01 7.51-15.01 17.75 0 9.18 6.45 20.58 18.1 20.58 5.39 0 9.36-1.15 12.81-3.71 0.35-3.36 0.44-6.89 0.44-10.51 0-14.66-5.56-24.11-16.34-24.11zm3.44 41.86c-13.78 0-22.87-10.95-22.87-24.73 0-12.63 7.77-20.66 18.54-20.66 9.1 0 13.25 3.27 16.69 9.89l0.09 0 0.88-9.27 3.53 0 0 39.03c-4.77 3.97-9.89 5.74-16.87 5.74" class="a"/><path d="m222.53 58.46-0.88-14.13-9.71 0 0-3.53 9.71 0 0-29.4c0-7.95 3.71-10.95 10.24-10.95 3.18 0 6 0.44 8.12 1.15l0 3.36c-2.3-0.53-5.03-0.97-7.68-0.97-3.8 0-6.27 2.38-6.27 7.77l0 29.05 13.33 0 0 3.53-13.33 0 0 14.13-3.53 0" class="a"/></g></g></svg>