<?xml version="1.0" encoding="UTF-8"?>
<svg width="183px" height="126px" viewBox="0 0 183 126" version="1.1" xmlns="http://www.w3.org/2000/svg" xmlns:xlink="http://www.w3.org/1999/xlink">
    <!-- Generator: Sketch 42 (36781) - http://www.bohemiancoding.com/sketch -->
    <title>ingef-logo-einzeilig</title>
    <desc>Created with Sketch.</desc>
    <defs/>
    <g id="Page-1" stroke="none" stroke-width="1" fill="none" fill-rule="evenodd">
        <g id="ingef-logo-einzeilig">
            <path d="M137.858,46.448 C137.858,56.143 129.969,64.031 120.274,64.031 L120.041,64.031 L120.041,53.616 C120.041,49.382 123.486,45.937 127.72,45.937 L137.858,45.937 L137.858,46.448 Z M109.165,53.616 L109.165,74.803 C109.165,85.035 117.489,93.358 127.72,93.358 L143.542,93.358 L146.083,82.482 L127.72,82.482 C123.522,82.482 120.109,79.092 120.051,74.907 L120.274,74.907 C135.83,74.907 148.493,62.357 148.713,46.852 L148.734,46.852 L148.734,45.937 L148.734,37.46 L148.734,35.062 L127.72,35.062 C117.489,35.062 109.165,43.385 109.165,53.616 L109.165,53.616 Z" id="Fill-5" fill="#324F5F"/>
            <path d="M182.851,11.941 L180.278,0.925 C165,8.693 154.489,24.527 154.489,42.808 L154.489,92.882 L155.165,92.882 C160.775,92.882 165.365,88.101 165.365,82.258 L165.365,48.491 L165.364,48.491 L165.364,45.937 L173.393,45.937 L175.934,35.062 L166.219,35.062 C168.377,25.278 174.517,16.983 182.851,11.941" id="Fill-6" fill="#324F5F"/>
            <path d="M92.317,82.755 C82.622,82.755 74.733,74.867 74.733,65.172 L74.733,53.616 C74.733,49.382 78.179,45.937 82.413,45.937 L92.534,45.937 L92.534,79.817 C92.534,80.807 92.488,81.786 92.409,82.755 L92.317,82.755 Z M92.534,35.062 L82.413,35.062 C72.182,35.062 63.858,43.385 63.858,53.616 L63.858,65.576 L63.878,65.576 C64.085,80.235 75.422,92.238 89.805,93.504 C85.562,103.787 76.717,111.699 65.832,114.652 L68.312,125.268 C88.479,119.976 103.41,101.621 103.41,79.817 L103.41,35.062 L92.534,35.062 L92.534,35.062 Z" id="Fill-7" fill="#324F5F"/>
            <path d="M39.547,35.062 L18.55,35.062 L18.55,82.259 C18.55,87.869 23.14,92.459 28.75,92.459 L29.426,92.459 L29.426,45.937 L39.547,45.937 C43.781,45.937 47.227,49.382 47.227,53.616 L47.227,92.459 L58.102,92.459 L58.102,53.616 C58.102,43.385 49.778,35.062 39.547,35.062" id="Fill-8" fill="#324F5F"/>
            <path d="M0.676,3.887 L0,3.887 L0,27.611 L10.876,27.611 L10.876,14.087 C10.876,8.477 6.286,3.887 0.676,3.887" id="Fill-1" fill="#9E282F"/>
            <path d="M0,82.258 C0,88.101 4.59,92.882 10.2,92.882 L10.876,92.882 L10.876,35.062 L0,35.062 L0,82.258" id="Fill-3" fill="#324F5F"/>
        </g>
    </g>
</svg>